<?xml version="1.0" standalone="no"?>
<!DOCTYPE svg PUBLIC "-//W3C//DTD SVG 20010904//EN"
 "http://www.w3.org/TR/2001/REC-SVG-20010904/DTD/svg10.dtd">
<svg version="1.0" xmlns="http://www.w3.org/2000/svg"
 width="1280.000000pt" height="959.000000pt" viewBox="0 0 1280.000000 959.000000"
 preserveAspectRatio="xMidYMid meet">
<g transform="translate(0.000000,959.000000) scale(0.100000,-0.100000)"
fill="#000000" stroke="none">
<path d="M906 9007 c-3 -12 -7 -267 -11 -567 -3 -300 -10 -828 -15 -1175 -5
-346 -12 -817 -15 -1045 -21 -1506 -35 -2332 -40 -2339 -2 -5 -26 -14 -52 -20
-27 -7 -64 -16 -84 -22 -52 -13 -91 -52 -87 -87 2 -21 14 -33 53 -53 l50 -26
-3 -119 c-3 -144 -16 -220 -42 -256 -27 -36 -25 -43 10 -58 28 -12 48 -11 124
6 l29 7 -7 -469 c-23 -1518 -35 -2479 -31 -2483 4 -4 159 54 745 280 173 66
383 145 465 175 159 58 460 176 585 230 54 24 78 30 87 22 10 -8 13 -51 13
-159 l0 -149 3933 2 3932 3 3 153 c2 121 5 152 16 152 8 0 45 -14 83 -31 297
-133 1517 -629 1549 -629 11 0 13 254 11 1568 l-2 1567 38 3 38 3 -3 61 c-3
59 -4 61 -38 72 l-35 11 -5 295 c-3 162 -7 862 -9 1555 -2 693 -4 1283 -5
1310 -1 28 -3 530 -4 1118 -2 1006 -3 1067 -19 1067 -10 0 -391 -104 -846
-232 -690 -193 -830 -229 -838 -217 -5 8 -9 96 -9 197 l0 182 -1897 -1 c-1044
-1 -2791 -5 -3883 -8 l-1985 -6 -3 -190 c-1 -104 -6 -193 -11 -198 -4 -4 -206
51 -447 123 -241 72 -590 176 -774 231 -184 55 -373 112 -420 126 -152 46
-139 44 -144 20z m1029 -687 c215 -56 392 -104 395 -107 3 -2 6 -355 9 -784
l3 -779 -33 0 c-19 1 -209 22 -424 48 l-390 48 3 679 c1 374 5 753 8 843 5
144 8 162 23 158 9 -3 192 -51 406 -106z m9625 -883 c7 -477 11 -869 9 -871
-3 -3 -414 -46 -680 -72 l-66 -6 -6 482 c-4 266 -7 635 -7 820 l0 337 163 43
c89 23 252 66 362 95 110 29 203 50 206 46 4 -3 12 -397 19 -874z m-8960 704
l75 -18 -4 -754 c-2 -415 -5 -756 -7 -757 -1 -2 -40 2 -86 10 l-83 13 2 75 c1
41 5 384 9 763 3 378 9 687 13 687 3 -1 40 -9 81 -19z m4188 -46 c2765 0 2773
0 2777 -20 2 -11 6 -177 10 -370 7 -431 54 -2998 100 -5465 11 -592 11 -767 2
-776 -9 -8 -189 -3 -667 17 l-655 29 -1795 -3 c-1390 -3 -1932 -8 -2404 -21
-335 -9 -613 -13 -617 -9 -7 7 -2 618 36 3928 8 726 18 1624 21 1995 4 371 11
683 16 693 8 16 23 17 206 10 108 -5 1445 -8 2970 -8z m3855 -502 c4 -273 7
-637 7 -808 l0 -312 -31 -7 c-31 -6 -99 -8 -99 -3 -3 14 -18 1593 -15 1595 5
5 98 30 116 31 14 1 16 -51 22 -496z m-8709 -1038 c214 -24 391 -47 394 -50 6
-5 9 -257 15 -1077 l4 -477 -61 -5 c-88 -8 -800 -25 -806 -19 -6 6 -1 1173 7
1451 l6 222 26 0 c14 0 201 -20 415 -45z m689 -71 l47 -6 0 -759 0 -759 -23
-5 c-13 -4 -50 -5 -82 -3 l-60 3 -6 765 c-3 421 -4 769 -1 773 2 5 20 6 41 3
20 -3 57 -8 84 -12z m8950 -481 c4 -223 7 -609 7 -856 l0 -450 -102 7 c-57 3
-197 11 -313 16 -115 5 -238 13 -272 16 l-63 6 0 804 c0 442 1 804 3 805 4 1
681 56 708 58 l26 1 6 -407z m-919 75 c3 -139 7 -491 9 -781 l2 -528 -65 3
-65 3 -8 763 c-5 420 -6 770 -3 778 4 10 22 14 65 14 l59 0 6 -252z m-7993
-2048 c-2 -437 -5 -796 -6 -798 -1 -1 -34 -9 -74 -16 l-71 -14 0 809 0 808 53
4 c28 2 63 3 77 3 l25 -1 -4 -795z m-318 -37 c-3 -450 -7 -819 -8 -821 -3 -4
-788 -149 -830 -154 l-30 -3 4 885 c2 487 5 887 8 890 5 5 360 15 670 18 l191
2 -5 -817z m8314 623 c4 -3 23 -1569 19 -1573 -2 -3 -31 1 -63 7 l-60 12 -6
376 c-4 206 -7 559 -7 784 l0 409 58 -7 c31 -3 58 -7 59 -8z m618 -30 l300
-21 6 -850 c3 -467 4 -852 2 -854 -1 -2 -168 29 -371 68 l-369 73 -6 801 c-3
441 -4 804 -2 807 4 7 23 6 440 -24z m-10445 -1027 c0 -85 -10 -160 -21 -153
-10 6 -12 227 -2 237 14 14 23 -20 23 -84z m1830 -1291 c0 -464 -4 -849 -8
-855 -7 -11 -122 -57 -128 -51 -1 2 -3 390 -5 863 l-4 860 45 12 c25 6 57 12
73 12 l27 1 0 -842z m-326 765 c2 -10 6 -407 8 -882 l3 -863 -439 -149 c-242
-82 -441 -148 -442 -146 -2 2 -1 425 3 941 5 682 9 939 18 942 9 4 817 171
837 173 4 1 9 -7 12 -16z m8319 -104 l37 -10 0 -799 c0 -440 -2 -800 -5 -800
-2 0 -29 9 -59 20 l-54 21 -6 172 c-3 95 -8 452 -11 795 l-5 624 32 -7 c18 -4
50 -11 71 -16z m845 -191 l92 -21 0 -864 c0 -475 -3 -863 -7 -862 -5 0 -170
60 -368 132 l-360 132 -3 805 c-1 443 0 810 2 816 3 8 93 -9 278 -53 150 -35
315 -73 366 -85z"/>
</g>
</svg>
